# xmcd CD database file
#
# Track frame offsets:
#	150
#	16017
#	46565
#	60497
#	81920
#	100515
#	121800
#	147842
#	171917
#	189482
#	199547
#	220760
#
# Disc length: 3250 seconds
#
# Revision: 0
# Processed by: cddbd v1.5.1PL0 Copyright (c) Steve Scherf et al.
# Submitted via: CDex 1.50
#
DISCID=8f0cb00c
DTITLE=高橋アキ - ノルウェーの森
DYEAR=1900
DGENRE=New Age
TTITLE0=モンクスインターメッツオ(アイゥオントユー)-ガイクルセヴェック
TTITLE1=アイウォントユー-ヤロスワフカプチンスキー
TTITLE2=ハッピネスイズアウォームガン-ケヴィンヴォランス
TTITLE3=アクロスザユニバース-内藤明美
TTITLE4=エイトデイズアウィーク変奏曲-クリスチャンウルフ
TTITLE5=ビコーズ-西村朗
TTITLE6=レイニンレヴォルーション-ジョンキング
TTITLE7=ジュリア-バニータマーカス
TTITLE8=サブリミナルヘイＪ（ヘイジュード)-湯浅譲二
TTITLE9=ツゥオブアス-マイケルフィンシー
TTITLE10=ノルウェーの森-三枝成彰
TTITLE11=ヤァヤァヤァ(シーラブズユー)-ロイスヴィアク
EXTD=
EXTT0=
EXTT1=
EXTT2=
EXTT3=
EXTT4=
EXTT5=
EXTT6=
EXTT7=
EXTT8=
EXTT9=
EXTT10=
EXTT11=
PLAYORDER=
